<svg xmlns="http://www.w3.org/2000/svg" xmlns:xlink="http://www.w3.org/1999/xlink" version="1.1" id="iconBg" x="0px" y="0px" width="16px" height="16px" viewBox="0 0 16 16" style="enable-background:new 0 0 16 16;" xml:space="preserve"><style type="text/css">.st0{fill-rule:evenodd;clip-rule:evenodd;fill:#181616;}</style><path class="st0" d="M7.999 0C3.582 0 0 3.7 0 8.203c0 3.6 2.3 6.7 5.5 7.783c0.4 0.1 0.546-0.178 0.546-0.395 c0-0.195-0.007-0.711-0.011-1.395c-2.225 0.496-2.695-1.1-2.695-1.1c-0.364-0.948-0.888-1.2-0.888-1.2 c-0.726-0.509 0.055-0.499 0.055-0.499c0.803 0.1 1.2 0.8 1.2 0.845c0.714 1.3 1.9 0.9 2.3 0.7 c0.073-0.53 0.279-0.892 0.508-1.097c-1.776-0.207-3.644-0.911-3.644-4.054c0-0.895 0.312-1.628 0.823-2.201 C3.637 5.4 3.4 4.5 3.8 3.402c0 0 0.672-0.221 2.2 0.841C6.636 4.1 7.3 4 8 3.967C8.68 4 9.4 4.1 10 4.2 c1.527-1.061 2.198-0.841 2.198-0.841c0.436 1.1 0.2 2 0.1 2.171c0.513 0.6 0.8 1.3 0.8 2.2 c0 3.151-1.87 3.844-3.653 4.048c0.287 0.3 0.5 0.8 0.5 1.519c0 1.097-0.01 1.981-0.01 2.25c0 0.2 0.1 0.5 0.6 0.4 C13.71 14.9 16 11.8 16 8.203C16 3.7 12.4 0 8 0z"/></svg>