<?xml version="1.0" encoding="utf-8"?>
<!-- Generator: Adobe Illustrator 18.1.1, SVG Export Plug-In . SVG Version: 6.00 Build 0)  -->
<!DOCTYPE svg PUBLIC "-//W3C//DTD SVG 1.1//EN" "http://www.w3.org/Graphics/SVG/1.1/DTD/svg11.dtd">
<svg version="1.1" id="iconBg" xmlns="http://www.w3.org/2000/svg" xmlns:xlink="http://www.w3.org/1999/xlink" x="0px" y="0px"
	 width="16px" height="16px" viewBox="0 0 16 16" style="enable-background:new 0 0 16 16;" xml:space="preserve">
<style type="text/css">
	.st0{fill-rule:evenodd;clip-rule:evenodd;fill:#181616;}
</style>
<path class="st0" d="M7.999,0C3.582,0,0,3.672,0,8.203c0,3.624,2.292,6.698,5.471,7.783c0.4,0.075,0.546-0.178,0.546-0.395
	c0-0.195-0.007-0.711-0.011-1.395c-2.225,0.496-2.695-1.1-2.695-1.1c-0.364-0.948-0.888-1.2-0.888-1.2
	c-0.726-0.509,0.055-0.499,0.055-0.499c0.803,0.058,1.225,0.845,1.225,0.845c0.714,1.253,1.872,0.892,2.328,0.682
	c0.073-0.53,0.279-0.892,0.508-1.097c-1.776-0.207-3.644-0.911-3.644-4.054c0-0.895,0.312-1.628,0.823-2.201
	C3.637,5.365,3.362,4.531,3.798,3.402c0,0,0.672-0.221,2.2,0.841C6.636,4.061,7.32,3.97,8,3.967C8.68,3.97,9.364,4.061,10.003,4.243
	c1.527-1.061,2.198-0.841,2.198-0.841c0.436,1.129,0.162,1.963,0.08,2.171c0.513,0.573,0.822,1.306,0.822,2.201
	c0,3.151-1.87,3.844-3.653,4.048c0.287,0.253,0.543,0.754,0.543,1.519c0,1.097-0.01,1.981-0.01,2.25c0,0.219,0.144,0.475,0.55,0.394
	C13.71,14.898,16,11.826,16,8.203C16,3.672,12.418,0,7.999,0z"/>
</svg>
