<?xml version="1.0" encoding="utf-8"?>
<!-- Generator: Adobe Illustrator 18.1.1, SVG Export Plug-In . SVG Version: 6.00 Build 0)  -->
<!DOCTYPE svg PUBLIC "-//W3C//DTD SVG 1.1//EN" "http://www.w3.org/Graphics/SVG/1.1/DTD/svg11.dtd">
<svg version="1.1" id="iconBg" xmlns="http://www.w3.org/2000/svg" xmlns:xlink="http://www.w3.org/1999/xlink" x="0px" y="0px"
	 width="24px" height="24px" viewBox="0 0 24 24" style="enable-background:new 0 0 24 24;" xml:space="preserve">
<style type="text/css">
	.icon-white{fill:#FFFFFF;}
</style>
<path class="icon-white" d="M1,12c0,6.075,4.925,11,11,11c6.075,0,11-4.925,11-11c0-6.075-4.925-11-11-11
	C5.925,1,1,5.925,1,12z M2.509,12c0-5.234,4.258-9.491,9.491-9.491S21.491,6.766,21.491,12S17.234,21.491,12,21.491
	S2.509,17.234,2.509,12z M13.006,16.023H9.989l3.017-3.017h-7.04v-2.011h7.04L9.989,7.977h3.017L17.029,12L13.006,16.023z"/>
</svg>
