<svg xmlns="http://www.w3.org/2000/svg" xmlns:xlink="http://www.w3.org/1999/xlink" version="1.1" id="iconBg" x="0px" y="0px" width="24px" height="24px" viewBox="0 0 24 24" style="enable-background:new 0 0 24 24;" xml:space="preserve"><style type="text/css">.icon-white{fill:#FFFFFF;}</style><path class="icon-white" d="M1 12c0 6.1 4.9 11 11 11c6.075 0 11-4.925 11-11c0-6.075-4.925-11-11-11 C5.925 1 1 5.9 1 12z M2.509 12c0-5.234 4.258-9.491 9.491-9.491S21.491 6.8 21.5 12S17.234 21.5 12 21.5 S2.509 17.2 2.5 12z M13.006 16.023H9.989l3.017-3.017h-7.04v-2.011h7.04L9.989 7.977h3.017L17.029 12L13.006 16.023z"/></svg>